<svg width="1589" height="581" viewBox="0 0 1589 581" fill="none" xmlns="http://www.w3.org/2000/svg">
<g clip-path="url(#clip0_2_2)">
<rect width="1589" height="581" fill="white"/>
<path d="M776.68 38.32C776.68 37.12 777.04 36.16 777.76 35.44C778.72 34.48 779.8 34 781 34H823.12C824.32 34 825.28 34.48 826 35.44C826.96 36.16 827.44 37.12 827.44 38.32V281.68C827.44 282.88 826.96 283.96 826 284.92C825.28 285.64 824.32 286 823.12 286H782.44C780.04 286 778.36 285.04 777.4 283.12L684.16 129.04C683.68 128.32 683.2 128.08 682.72 128.32C682.24 128.32 682 128.8 682 129.76L682.72 281.68C682.72 282.88 682.24 283.96 681.28 284.92C680.56 285.64 679.6 286 678.4 286H636.28C635.08 286 634 285.64 633.04 284.92C632.32 283.96 631.96 282.88 631.96 281.68V38.32C631.96 37.12 632.32 36.16 633.04 35.44C634 34.48 635.08 34 636.28 34H676.96C679.36 34 681.04 34.96 682 36.88L774.88 190.24C775.36 190.96 775.84 191.32 776.32 191.32C776.8 191.08 777.04 190.48 777.04 189.52L776.68 38.32ZM1044.22 73.24C1044.22 74.44 1043.74 75.52 1042.78 76.48C1042.06 77.2 1041.1 77.56 1039.9 77.56H921.825C920.625 77.56 920.025 78.16 920.025 79.36V135.16C920.025 136.36 920.625 136.96 921.825 136.96H999.225C1000.42 136.96 1001.38 137.44 1002.1 138.4C1003.06 139.12 1003.54 140.08 1003.54 141.28V176.2C1003.54 177.4 1003.06 178.48 1002.1 179.44C1001.38 180.16 1000.42 180.52 999.225 180.52H921.825C920.625 180.52 920.025 181.12 920.025 182.32V240.64C920.025 241.84 920.625 242.44 921.825 242.44H1039.9C1041.1 242.44 1042.06 242.92 1042.78 243.88C1043.74 244.6 1044.22 245.56 1044.22 246.76V281.68C1044.22 282.88 1043.74 283.96 1042.78 284.92C1042.06 285.64 1041.1 286 1039.9 286H873.585C872.385 286 871.305 285.64 870.345 284.92C869.625 283.96 869.265 282.88 869.265 281.68V38.32C869.265 37.12 869.625 36.16 870.345 35.44C871.305 34.48 872.385 34 873.585 34H1039.9C1041.1 34 1042.06 34.48 1042.78 35.44C1043.74 36.16 1044.22 37.12 1044.22 38.32V73.24ZM1253.38 34C1254.58 34 1255.54 34.48 1256.26 35.44C1257.22 36.16 1257.7 37.12 1257.7 38.32V73.6C1257.7 74.8 1257.22 75.88 1256.26 76.84C1255.54 77.56 1254.58 77.92 1253.38 77.92H1188.94C1187.74 77.92 1187.14 78.52 1187.14 79.72V281.68C1187.14 282.88 1186.66 283.96 1185.7 284.92C1184.98 285.64 1184.02 286 1182.82 286H1140.7C1139.5 286 1138.42 285.64 1137.46 284.92C1136.74 283.96 1136.38 282.88 1136.38 281.68V79.72C1136.38 78.52 1135.78 77.92 1134.58 77.92H1071.94C1070.74 77.92 1069.66 77.56 1068.7 76.84C1067.98 75.88 1067.62 74.8 1067.62 73.6V38.32C1067.62 37.12 1067.98 36.16 1068.7 35.44C1069.66 34.48 1070.74 34 1071.94 34H1253.38ZM1294.41 286C1293.21 286 1292.13 285.64 1291.17 284.92C1290.45 283.96 1290.09 282.88 1290.09 281.68V38.32C1290.09 37.12 1290.45 36.16 1291.17 35.44C1292.13 34.48 1293.21 34 1294.41 34H1336.53C1337.73 34 1338.69 34.48 1339.41 35.44C1340.37 36.16 1340.85 37.12 1340.85 38.32V281.68C1340.85 282.88 1340.37 283.96 1339.41 284.92C1338.69 285.64 1337.73 286 1336.53 286H1294.41ZM1473.22 288.88C1454.5 288.88 1438.06 285.28 1423.9 278.08C1409.74 270.64 1398.82 260.32 1391.14 247.12C1383.46 233.92 1379.62 218.68 1379.62 201.4V118.24C1379.62 100.96 1383.46 85.72 1391.14 72.52C1398.82 59.32 1409.74 49.12 1423.9 41.92C1438.06 34.72 1454.5 31.12 1473.22 31.12C1491.7 31.12 1507.9 34.6 1521.82 41.56C1535.98 48.28 1546.9 58 1554.58 70.72C1562.5 83.2 1566.46 97.72 1566.46 114.28C1566.46 116.44 1565.02 117.76 1562.14 118.24L1520.02 120.76H1519.3C1516.9 120.76 1515.7 119.44 1515.7 116.8C1515.7 104.08 1511.74 93.88 1503.82 86.2C1496.14 78.52 1485.94 74.68 1473.22 74.68C1460.26 74.68 1449.82 78.52 1441.9 86.2C1434.22 93.88 1430.38 104.08 1430.38 116.8V203.56C1430.38 216.04 1434.22 226.12 1441.9 233.8C1449.82 241.48 1460.26 245.32 1473.22 245.32C1485.94 245.32 1496.14 241.48 1503.82 233.8C1511.74 226.12 1515.7 216.04 1515.7 203.56C1515.7 200.92 1517.14 199.6 1520.02 199.6L1562.14 201.4C1563.34 201.4 1564.3 201.76 1565.02 202.48C1565.98 203.2 1566.46 204.04 1566.46 205C1566.46 221.56 1562.5 236.2 1554.58 248.92C1546.9 261.64 1535.98 271.48 1521.82 278.44C1507.9 285.4 1491.7 288.88 1473.22 288.88Z" fill="black"/>
<rect x="25" y="29" width="524" height="518" rx="20" fill="#3F64E6"/>
<rect width="561.365" height="104.049" rx="52.0243" transform="matrix(-0.999999 0.00151717 0.0213812 -0.999771 242.365 442.025)" fill="white"/>
<rect width="192" height="192" rx="96" transform="matrix(0.000163483 -1 0.999734 0.0230614 314 506)" fill="white"/>
<rect width="143.895" height="144.015" rx="71.9477" transform="matrix(0.000163483 -1 0.999734 0.0230614 338 482.14)" fill="#294CC6"/>
<rect width="545.048" height="87" rx="43.5" transform="matrix(-0.999974 -0.00722368 0.0301192 -0.999546 352.034 287.898)" fill="white"/>
<path d="M556.349 160.985L162.5 162.605C138.475 162.704 119.366 143.312 119.817 119.292C120.268 95.272 140.11 75.7197 164.134 75.6208L557.983 74L556.349 160.985Z" fill="white"/>
<path d="M920.687 530.732C919.107 530.732 917.685 530.448 916.422 529.881C915.474 529.125 915 528.275 915 527.33V335.67C915 334.725 915.474 333.969 916.422 333.402C917.685 332.646 919.107 332.268 920.687 332.268H976.131C977.711 332.268 978.974 332.646 979.922 333.402C981.186 333.969 981.818 334.725 981.818 335.67V527.33C981.818 528.275 981.186 529.125 979.922 529.881C978.974 530.448 977.711 530.732 976.131 530.732H920.687Z" fill="#294CC6"/>
<path d="M1153.22 533C1127.95 533 1105.83 530.637 1086.88 525.912C1067.92 520.998 1053.23 514.099 1042.8 505.215C1032.69 496.142 1027.64 485.652 1027.64 473.744V467.507C1027.64 466.562 1028.11 465.806 1029.06 465.239C1030.33 464.483 1031.75 464.105 1033.33 464.105H1087.35C1088.93 464.105 1090.19 464.483 1091.14 465.239C1092.4 465.806 1093.04 466.562 1093.04 467.507V471.76C1093.04 479.32 1098.88 485.747 1110.57 491.039C1122.26 496.142 1138.06 498.694 1157.96 498.694C1174.7 498.694 1187.18 496.615 1195.4 492.457C1203.61 488.109 1207.72 482.817 1207.72 476.58C1207.72 472.043 1205.19 468.263 1200.13 465.239C1195.08 462.026 1188.13 459.285 1179.28 457.017C1170.75 454.56 1157.01 451.252 1138.06 447.094C1116.89 442.746 1098.88 438.304 1084.03 433.768C1069.5 429.232 1057.18 423.089 1047.07 415.339C1037.28 407.401 1032.38 397.667 1032.38 386.137C1032.38 374.796 1037.28 364.873 1047.07 356.367C1056.86 347.862 1070.45 341.341 1087.82 336.804C1105.2 332.268 1125.26 330 1148.01 330C1172.02 330 1193.34 332.552 1211.98 337.655C1230.94 342.758 1245.63 349.941 1256.05 359.203C1266.79 368.275 1272.16 378.86 1272.16 390.957V395.209C1272.16 396.155 1271.53 397.005 1270.27 397.761C1269.32 398.328 1268.06 398.612 1266.48 398.612H1211.98C1210.4 398.612 1208.98 398.328 1207.72 397.761C1206.77 397.005 1206.29 396.155 1206.29 395.209V392.941C1206.29 385.003 1200.77 378.293 1189.71 372.811C1178.97 367.141 1164.12 364.306 1145.16 364.306C1130.32 364.306 1118.63 366.196 1110.1 369.976C1101.88 373.757 1097.78 378.954 1097.78 385.57C1097.78 390.295 1100.14 394.264 1104.88 397.478C1109.94 400.691 1117.2 403.621 1126.68 406.267C1136.48 408.724 1151.48 412.126 1171.7 416.473C1194.13 421.388 1211.67 425.735 1224.3 429.515C1237.25 433.296 1248.79 438.966 1258.9 446.527C1269.32 453.898 1274.53 463.538 1274.53 475.446C1274.53 493.213 1263.63 507.294 1241.84 517.69C1220.04 527.897 1190.5 533 1153.22 533Z" fill="#294CC6"/>
<path d="M1458.27 331.985C1479.12 331.985 1497.45 334.536 1513.24 339.64C1529.04 344.743 1541.2 352.02 1549.73 361.471C1558.58 370.732 1563 381.412 1563 393.508C1563 405.416 1558.42 415.906 1549.26 424.979C1540.41 434.052 1527.77 441.14 1511.35 446.243C1495.23 451.157 1476.6 453.615 1455.43 453.615H1388.14C1386.56 453.615 1385.77 454.087 1385.77 455.032V527.33C1385.77 528.275 1385.14 529.125 1383.87 529.881C1382.92 530.448 1381.66 530.732 1380.08 530.732H1324.64C1323.06 530.732 1321.63 530.448 1320.37 529.881C1319.42 529.125 1318.95 528.275 1318.95 527.33V335.387C1318.95 334.442 1319.42 333.686 1320.37 333.119C1321.63 332.363 1323.06 331.985 1324.64 331.985H1458.27ZM1448.32 421.577C1462.85 421.577 1474.54 419.12 1483.39 414.205C1492.23 409.102 1496.66 402.486 1496.66 394.359C1496.66 386.042 1492.23 379.332 1483.39 374.229C1474.54 369.126 1462.85 366.574 1448.32 366.574H1388.14C1386.56 366.574 1385.77 367.047 1385.77 367.992V420.159C1385.77 421.104 1386.56 421.577 1388.14 421.577H1448.32Z" fill="#294CC6"/>
</g>
<defs>
<clipPath id="clip0_2_2">
<rect width="1589" height="581" fill="white"/>
</clipPath>
</defs>
</svg>
